<svg width="129" height="125" viewBox="0 0 129 125" fill="none" xmlns="http://www.w3.org/2000/svg">
<path d="M65.5394 110.001C91.4315 110.001 112.423 88.951 112.423 62.8932C112.423 36.8354 91.339 15.7852 65.5394 15.7852C39.6473 15.7852 18.6562 36.8354 18.6562 62.8932C18.6562 88.951 39.6473 110.001 65.5394 110.001Z" fill="#EAEEF9"/>
<path d="M115.334 93.2877C117.428 93.2877 119.126 91.5854 119.126 89.4856C119.126 87.3858 117.428 85.6836 115.334 85.6836C113.24 85.6836 111.543 87.3858 111.543 89.4856C111.543 91.5854 113.24 93.2877 115.334 93.2877Z" fill="#EAEEF9"/>
<path d="M120.882 78.4508C122.312 78.4508 123.471 77.2883 123.471 75.8543C123.471 74.4203 122.312 73.2578 120.882 73.2578C119.452 73.2578 118.293 74.4203 118.293 75.8543C118.293 77.2883 119.452 78.4508 120.882 78.4508Z" fill="#EAEEF9"/>
<path d="M21.1517 31.9196C22.5817 31.9196 23.7409 30.7571 23.7409 29.3231C23.7409 27.8891 22.5817 26.7266 21.1517 26.7266C19.7217 26.7266 18.5625 27.8891 18.5625 29.3231C18.5625 30.7571 19.7217 31.9196 21.1517 31.9196Z" fill="#EAEEF9"/>
<path d="M5.33978 81.9957C7.99546 81.9957 10.1483 79.8368 10.1483 77.1737C10.1483 74.5105 7.99546 72.3516 5.33978 72.3516C2.6841 72.3516 0.53125 74.5105 0.53125 77.1737C0.53125 79.8368 2.6841 81.9957 5.33978 81.9957Z" fill="#EAEEF9"/>
<path d="M71.4207 79.9727H61.0018C58.5877 79.9727 56.5547 82.206 56.5547 84.858V90.5808C56.5547 96.4433 60.8747 101.189 66.2113 101.189C71.5478 101.189 75.8679 96.4433 75.8679 90.5808V84.858C75.8679 82.0664 73.8349 79.9727 71.4207 79.9727Z" fill="white"/>
<g filter="url(#filter0_d_3388_274026)">
<path fill-rule="evenodd" clip-rule="evenodd" d="M70.4947 25.1356C80.6894 27.5004 88.2831 36.6563 88.2831 47.5979V50.5276C88.2831 75.2393 106.834 91.4165 106.834 91.4165H23.6094C23.6094 91.4165 42.2872 75.2393 42.2872 50.5276V47.5979C42.2872 36.6563 49.881 27.5004 60.0757 25.1356V24.1601C60.0757 21.2303 62.3628 18.9375 65.2852 18.9375C68.2076 18.9375 70.4947 21.2303 70.4947 24.1601V25.1356Z" fill="url(#paint0_linear_3388_274026)"/>
</g>
<path d="M55.6284 60.5918C52.4519 60.5918 49.7836 58.5537 48.7671 55.624C48.513 54.9871 48.8942 54.3502 49.5295 54.0954C50.1648 53.8407 50.8001 54.2228 51.0542 54.8597C51.6895 56.7704 53.5954 58.1716 55.6284 58.1716C57.6613 58.1716 59.5672 56.8978 60.2025 54.8597C60.4567 54.2228 61.092 53.8407 61.7273 54.0954C62.3626 54.3502 62.7437 54.9871 62.4896 55.624C61.4731 58.6811 58.8049 60.5918 55.6284 60.5918Z" fill="#ADB6C8"/>
<path d="M74.8159 60.5918C71.6393 60.5918 68.9711 58.5537 67.9546 55.624C67.7005 54.9871 68.0817 54.3502 68.717 54.0954C69.3523 53.8407 69.9876 54.2228 70.2417 54.8597C70.877 56.7704 72.7829 58.1716 74.8159 58.1716C76.8488 58.1716 78.7547 56.8978 79.39 54.8597C79.6442 54.2228 80.2794 53.8407 80.9148 54.0954C81.5501 54.3502 81.9312 54.9871 81.6771 55.624C80.6606 58.6811 77.9924 60.5918 74.8159 60.5918Z" fill="#ADB6C8"/>
<path d="M65.2857 76.1876C66.8997 76.1876 68.2081 74.8759 68.2081 73.2579C68.2081 71.6398 66.8997 70.3281 65.2857 70.3281C63.6717 70.3281 62.3633 71.6398 62.3633 73.2579C62.3633 74.8759 63.6717 76.1876 65.2857 76.1876Z" fill="#ADB6C8"/>
<path d="M80.9459 4.31175V0H97.5631V4.31175L86.2243 18.031H97.7586V22.3427H80.3594V18.031L91.6982 4.31175H80.9459Z" fill="url(#paint1_linear_3388_274026)"/>
<path d="M94.6293 36.6501V33.9062H105.382V36.6501L98.1482 45.4696H105.577V48.2134H94.2383V45.4696L101.472 36.6501H94.6293Z" fill="url(#paint2_linear_3388_274026)"/>
<defs>
<filter id="filter0_d_3388_274026" x="1.60938" y="7.9375" width="127.223" height="116.48" filterUnits="userSpaceOnUse" color-interpolation-filters="sRGB">
<feFlood flood-opacity="0" result="BackgroundImageFix"/>
<feColorMatrix in="SourceAlpha" type="matrix" values="0 0 0 0 0 0 0 0 0 0 0 0 0 0 0 0 0 0 127 0" result="hardAlpha"/>
<feOffset dy="11"/>
<feGaussianBlur stdDeviation="11"/>
<feColorMatrix type="matrix" values="0 0 0 0 0.397708 0 0 0 0 0.47749 0 0 0 0 0.575 0 0 0 0.27 0"/>
<feBlend mode="normal" in2="BackgroundImageFix" result="effect1_dropShadow_3388_274026"/>
<feBlend mode="normal" in="SourceGraphic" in2="effect1_dropShadow_3388_274026" result="shape"/>
</filter>
<linearGradient id="paint0_linear_3388_274026" x1="65.1945" y1="17.261" x2="65.1945" y2="92.198" gradientUnits="userSpaceOnUse">
<stop stop-color="#FDFEFF"/>
<stop offset="0.9964" stop-color="#ECF0F5"/>
</linearGradient>
<linearGradient id="paint1_linear_3388_274026" x1="89.0604" y1="0.77616" x2="89.0604" y2="13.3169" gradientUnits="userSpaceOnUse">
<stop stop-color="#B0BACC"/>
<stop offset="1" stop-color="#969EAE"/>
</linearGradient>
<linearGradient id="paint2_linear_3388_274026" x1="99.9086" y1="34.4033" x2="99.9086" y2="42.4337" gradientUnits="userSpaceOnUse">
<stop stop-color="#B0BACC"/>
<stop offset="1" stop-color="#969EAE"/>
</linearGradient>
</defs>
</svg>
